<?xml version="1.0" encoding="UTF-8" standalone="no"?>
<svg
   style="fill: black;"
   viewBox="0 0 448 512"
   version="1.1"
   id="svg12"
   sodipodi:docname="instagram.svg"
   inkscape:version="1.2.2 (b0a8486541, 2022-12-01)"
   xmlns:inkscape="http://www.inkscape.org/namespaces/inkscape"
   xmlns:sodipodi="http://sodipodi.sourceforge.net/DTD/sodipodi-0.dtd"
   xmlns:xlink="http://www.w3.org/1999/xlink"
   xmlns="http://www.w3.org/2000/svg"
   xmlns:svg="http://www.w3.org/2000/svg">
  <defs
     id="defs16">
    <linearGradient
       inkscape:collect="always"
       id="linearGradient889">
      <stop
         style="stop-color:#1bbfff;stop-opacity:1;"
         offset="0"
         id="stop885" />
      <stop
         style="stop-color:#b21bff;stop-opacity:1;"
         offset="0.58333331"
         id="stop887" />
    </linearGradient>
    <linearGradient
       inkscape:collect="always"
       xlink:href="#linearGradient889"
       id="linearGradient891"
       x1="-0.075"
       y1="255.9"
       x2="448.175"
       y2="255.9"
       gradientUnits="userSpaceOnUse" />
  </defs>
  <sodipodi:namedview
     id="namedview14"
     pagecolor="#ffffff"
     bordercolor="#000000"
     borderopacity="0.25"
     inkscape:showpageshadow="2"
     inkscape:pageopacity="0.0"
     inkscape:pagecheckerboard="0"
     inkscape:deskcolor="#d1d1d1"
     showgrid="false"
     inkscape:zoom="2.0058594"
     inkscape:cx="22.932814"
     inkscape:cy="255.75073"
     inkscape:window-width="3440"
     inkscape:window-height="1369"
     inkscape:window-x="-8"
     inkscape:window-y="-8"
     inkscape:window-maximized="1"
     inkscape:current-layer="svg12" />
  <!--! Font Awesome Pro 6.2.1 by @fontawesome - https://fontawesome.com License - https://fontawesome.com/license (Commercial License) Copyright 2022 Fonticons, Inc. -->
  <path
     d="m 224.1,141 c -63.6,0 -114.9,51.3 -114.9,114.9 0,63.6 51.3,114.9 114.9,114.9 C 287.7,370.8 339,319.5 339,255.9 339,192.3 287.7,141 224.1,141 Z m 0,189.6 c -41.1,0 -74.7,-33.5 -74.7,-74.7 0,-41.2 33.5,-74.7 74.7,-74.7 41.2,0 74.7,33.5 74.7,74.7 0,41.2 -33.6,74.7 -74.7,74.7 z M 370.5,136.3 c 0,14.9 -12,26.8 -26.8,26.8 -14.9,0 -26.8,-12 -26.8,-26.8 0,-14.8 12,-26.8 26.8,-26.8 14.8,0 26.8,12 26.8,26.8 z m 76.1,27.2 c -1.7,-35.9 -9.9,-67.7 -36.2,-93.9 -26.2,-26.2 -58,-34.4 -93.9,-36.2 -37,-2.1 -147.9,-2.1 -184.9,0 -35.8,1.7 -67.6,9.9 -93.9,36.1 -26.3,26.2 -34.4,58 -36.2,93.9 -2.1,37 -2.1,147.9 0,184.9 1.7,35.9 9.9,67.7 36.2,93.9 26.3,26.2 58,34.4 93.9,36.2 37,2.1 147.9,2.1 184.9,0 35.9,-1.7 67.7,-9.9 93.9,-36.2 26.2,-26.2 34.4,-58 36.2,-93.9 2.1,-37 2.1,-147.8 0,-184.8 z M 398.8,388 c -7.8,19.6 -22.9,34.7 -42.6,42.6 -29.5,11.7 -99.5,9 -132.1,9 -32.6,0 -102.7,2.6 -132.1,-9 -19.6,-7.8 -34.7,-22.9 -42.6,-42.6 -11.7,-29.5 -9,-99.5 -9,-132.1 0,-32.6 -2.6,-102.7 9,-132.1 7.8,-19.6 22.9,-34.7 42.6,-42.6 29.5,-11.7 99.5,-9 132.1,-9 32.6,0 102.7,-2.6 132.1,9 19.6,7.8 34.7,22.9 42.6,42.6 11.7,29.5 9,99.5 9,132.1 0,32.6 2.7,102.7 -9,132.1 z"
     id="path10"
     style="display:inline;mix-blend-mode:normal;fill:url(#linearGradient891);fill-opacity:1"
     inkscape:label="path10" />
</svg>
