<?xml version="1.0" encoding="UTF-8" standalone="no"?>
<svg
   fill="black"
   viewBox="0 0 448 512"
   version="1.1"
   id="svg8729"
   sodipodi:docname="linkedin-in.svg"
   inkscape:version="1.2.2 (b0a8486541, 2022-12-01)"
   xmlns:inkscape="http://www.inkscape.org/namespaces/inkscape"
   xmlns:sodipodi="http://sodipodi.sourceforge.net/DTD/sodipodi-0.dtd"
   xmlns:xlink="http://www.w3.org/1999/xlink"
   xmlns="http://www.w3.org/2000/svg"
   xmlns:svg="http://www.w3.org/2000/svg">
  <defs
     id="defs8733">
    <linearGradient
       inkscape:collect="always"
       id="linearGradient11424">
      <stop
         style="stop-color:#1bbfff;stop-opacity:1;"
         offset="0"
         id="stop11420" />
      <stop
         style="stop-color:#b21bff;stop-opacity:1;"
         offset="1"
         id="stop11422" />
    </linearGradient>
    <linearGradient
       inkscape:collect="always"
       xlink:href="#linearGradient11424"
       id="linearGradient11426"
       x1="0"
       y1="224.005"
       x2="448"
       y2="224.005"
       gradientUnits="userSpaceOnUse" />
  </defs>
  <sodipodi:namedview
     id="namedview8731"
     pagecolor="#ffffff"
     bordercolor="#000000"
     borderopacity="0.25"
     inkscape:showpageshadow="2"
     inkscape:pageopacity="0.0"
     inkscape:pagecheckerboard="0"
     inkscape:deskcolor="#d1d1d1"
     showgrid="false"
     inkscape:zoom="2.0058594"
     inkscape:cx="133.85784"
     inkscape:cy="256"
     inkscape:window-width="1350"
     inkscape:window-height="1230"
     inkscape:window-x="706"
     inkscape:window-y="86"
     inkscape:window-maximized="0"
     inkscape:current-layer="svg8729" />
  <!--! Font Awesome Pro 6.2.1 by @fontawesome - https://fontawesome.com License - https://fontawesome.com/license (Commercial License) Copyright 2022 Fonticons, Inc. -->
  <path
     d="M100.28 448H7.4V148.9h92.88zM53.79 108.1C24.09 108.1 0 83.5 0 53.8a53.79 53.79 0 0 1 107.58 0c0 29.7-24.1 54.3-53.79 54.3zM447.9 448h-92.68V302.4c0-34.7-.7-79.2-48.29-79.2-48.29 0-55.69 37.7-55.69 76.7V448h-92.78V148.9h89.08v40.8h1.3c12.4-23.5 42.69-48.3 87.88-48.3 94 0 111.28 61.9 111.28 142.3V448z"
     id="path8727"
     style="fill-opacity:1;fill:url(#linearGradient11426)" />
</svg>
